<svg height="512pt" viewBox="0 0 512 511" width="512pt" xmlns="http://www.w3.org/2000/svg" xmlns:xlink="http://www.w3.org/1999/xlink"><linearGradient id="linear0" gradientUnits="userSpaceOnUse" x1="256.0002953805" x2="256.0002953805" y1=".4997004905" y2="512.019754112"><stop offset="0" stop-color="#2af598"/><stop offset="1" stop-color="#009efd"/></linearGradient><path d="m231.761719 512.019531-88.320313-45.402343-88.316406 45.402343 16.882812-96.242187-72.007812-68.636719 99.460938-14.132813 43.980468-87.144531 43.984375 87.144531 99.460938 14.132813-72.007813 68.636719zm-88.320313-90.308593 35.097656 18.042968-6.691406-38.136718 27.835938-26.527344-38.515625-5.472656-17.726563-35.117188-17.722656 35.117188-38.515625 5.472656 27.835937 26.527344-6.691406 38.136718zm368.558594-392.972657-28.238281-28.238281-276.5625 276.5625 28.238281 28.238281zm-132.753906-.035156-28.308594-28.167969-199.183594 200.183594 28.308594 28.167969zm132.28125 132.351563-28.242188-28.238282-179.714844 179.714844 28.242188 28.238281zm0 0" fill="url(#linear0)"/></svg>