<svg id="Capa_1" enable-background="new 0 0 512 512" height="512" viewBox="0 0 512 512" width="512" xmlns="http://www.w3.org/2000/svg"><g><g><g><g><g><g><g><g><g><path d="m224.295 510.056c-126.425-15.616-224.295-123.406-224.295-254.056 0-141.385 114.615-256 256-256s256 114.615 256 256c0 130.764-98.043 238.63-224.629 254.097z" fill="#bfe1ff"/></g></g></g></g></g></g></g></g><path d="m287.546 510.076c126.502-15.546 224.454-123.372 224.454-254.076 0-12.727-.929-25.238-2.722-37.467l-57.278-57.278-186.928 79.097-134.007-134.007 9.8 44.887-49.509-5.178 117.912 117.912-149.268 63.162 180.873 180.872z" fill="#87c7ff"/><g><path d="m224.296 510.046c10.389 1.284 20.968 1.954 31.704 1.954s21.315-.67 31.704-1.954v-314.923h-63.409v314.923z" fill="#ff73a5"/></g><g><path d="m287.704 195.123h-31.584v316.876c10.695-.005 21.234-.674 31.584-1.953z" fill="#ff468c"/></g><g><path d="m60 161.255h392v165.872h-392z" fill="#b674f2"/></g><g><path d="m256.12 161.255h195.88v165.872h-195.88z" fill="#8f4cd6"/></g><g><path d="m149.772 280.808v-33.083h-34.194v33.083h-21.232v-82.337h21.232v30.738h34.194v-30.738h21.232v82.337z" fill="#fff"/><path d="m181.624 239.701c0-25.059 18.887-42.588 44.069-42.588s43.946 17.529 43.946 42.588-18.763 42.588-43.946 42.588-44.069-17.529-44.069-42.588zm66.412 0c0-13.455-8.764-23.825-22.343-23.825-13.702 0-22.467 10.369-22.467 23.825 0 13.332 8.765 23.824 22.467 23.824 13.579 0 22.343-10.492 22.343-23.824z" fill="#fff"/><g fill="#e9edf5"><path d="m280.381 280.808v-82.337h41.23c18.517 0 28.639 12.468 28.639 27.405 0 14.813-10.122 27.281-28.639 27.281h-19.998v27.651zm48.266-54.933c0-5.678-4.197-8.888-9.875-8.888h-17.159v17.652h17.159c5.678.001 9.875-3.209 9.875-8.764z"/><path d="m359.758 280.808v-82.337h60.364v18.517h-39.132v12.838h38.268v18.517h-38.268v13.949h39.132v18.517h-60.364z"/></g></g><g><ellipse cx="131.065" cy="146.054" fill="#fff" rx="39.709" ry="39.709" transform="matrix(.686 -.728 .728 .686 -65.117 141.295)"/></g><g><ellipse cx="347.217" cy="377.018" fill="#e9edf5" rx="39.709" ry="39.709" transform="matrix(.686 -.728 .728 .686 -165.295 371.205)"/></g></g></svg>